<svg xmlns="http://www.w3.org/2000/svg" width="220" height="22.869" viewBox="0 0 220 22.869">
  <g id="Group_13" data-name="Group 13" transform="translate(-23.711 -256.346)">
    <path id="Path_2" data-name="Path 2" d="M47.265,268.137c0,6.7-5.172,11.31-11.777,11.31s-11.777-4.611-11.777-11.31S28.883,256.8,35.488,256.8,47.265,261.438,47.265,268.137Zm-19.94,0c0,6.854,3.551,10.687,8.163,10.687s8.163-3.832,8.163-10.687c0-6.885-3.552-10.717-8.163-10.717S27.325,261.251,27.325,268.137Z" transform="translate(0 -0.325)" fill="#1a1818"/>
    <path id="Path_3" data-name="Path 3" d="M134.1,264.031h-.156c-1.776-5.515-4.393-6.418-6.076-6.418a3.892,3.892,0,0,0-3.988,3.957c0,5.3,11.341,4.331,11.341,11.216,0,4.05-3.147,6.792-7.6,6.792a14.408,14.408,0,0,1-6.48-1.5v-6.169h.125c2.15,6.075,5.11,7.041,7.1,7.041a4.17,4.17,0,0,0,4.393-4.331c0-5.826-11.247-4.362-11.247-11.5,0-3.583,2.96-6.107,6.979-6.107a12.323,12.323,0,0,1,5.608,1.371Z" transform="translate(-70.446 -0.488)" fill="#1a1818"/>
    <path id="Path_4" data-name="Path 4" d="M188.633,258.6h3.334v21h8.474v.623H188.633Z" transform="translate(-119.253 -1.628)" fill="#1a1818"/>
    <path id="Path_5" data-name="Path 5" d="M260.674,268.137c0,6.7-5.172,11.31-11.777,11.31s-11.777-4.611-11.777-11.31S242.292,256.8,248.9,256.8,260.674,261.438,260.674,268.137Zm-19.94,0c0,6.854,3.552,10.687,8.163,10.687s8.163-3.832,8.163-10.687c0-6.885-3.552-10.717-8.163-10.717S240.734,261.251,240.734,268.137Z" transform="translate(-154.313 -0.325)" fill="#1a1818"/>
    <path id="Path_6" data-name="Path 6" d="M365.032,258.6h6.761c4.237,0,7.135,1.776,7.135,5.359,0,2.929-1.963,4.673-4.985,5.172v.312l8.35,10.78h-4.081l-8.319-10.9h-1.527v10.9h-3.333Zm3.333.623v9.472h3.116c2.15,0,3.895-1.807,3.895-4.736s-1.745-4.736-3.895-4.736Z" transform="translate(-246.804 -1.628)" fill="#1a1818"/>
    <path id="Path_7" data-name="Path 7" d="M452.294,272.274V258.6h.623v13.677c0,5.328-3.053,8.443-8.225,8.443s-8.225-3.116-8.225-8.443V258.6H439.8v13.8c0,4.05,2.524,7.166,6.356,7.166C449.3,279.565,452.294,277.477,452.294,272.274Z" transform="translate(-298.458 -1.628)" fill="#1a1818"/>
    <path id="Path_8" data-name="Path 8" d="M516.341,278.591V256.346l16.388,17.167h.374V256.969h.623v22.245l-16.481-17.261h-.281v16.637Z" transform="translate(-356.213)" fill="#1a1818"/>
    <path id="Path_9" data-name="Path 9" d="M602.347,275.732h.218l2.928-6.7L600.82,258.6h3.646l3.3,7.353,3.24-7.353h.685l-3.583,8.131,4.019,9h.218l7.664-17.135h.685l-9.939,22.245-4.922-11.03-4.86,11.03L591.037,258.6h3.645Z" transform="translate(-410.225 -1.628)" fill="#1a1818"/>
    <path id="Path_10" data-name="Path 10" d="M686.885,278.591l10.25-22.245,10.251,22.245H703.71l-4.019-8.786h-8.069l-4.051,8.786Zm12.525-9.409-3.583-7.82h-.343l-3.583,7.82Z" transform="translate(-479.531)" fill="#1a1818"/>
    <path id="Path_11" data-name="Path 11" d="M760.581,271.308,753.259,258.6h3.957l6.449,11.621h.187L770.52,258.6h.717l-7.322,12.711v8.911h-3.333Z" transform="translate(-527.525 -1.628)" fill="#1a1818"/>
  </g>
</svg>
